<svg width="23" height="23" viewBox="0 0 23 23" fill="none" xmlns="http://www.w3.org/2000/svg">
<path opacity="0.5" fill-rule="evenodd" clip-rule="evenodd" d="M2.875 13.6562C3.27195 13.6562 3.59375 13.9781 3.59375 14.375C3.59375 15.7506 3.59527 16.71 3.6926 17.4339C3.78714 18.1371 3.96007 18.5094 4.2253 18.7747C4.49053 19.04 4.86292 19.2129 5.56612 19.3074C6.28999 19.4047 7.2494 19.4062 8.625 19.4062H14.375C15.7506 19.4062 16.71 19.4047 17.4339 19.3074C18.1371 19.2129 18.5094 19.04 18.7747 18.7747C19.04 18.5094 19.2129 18.1371 19.3074 17.4339C19.4047 16.71 19.4062 15.7506 19.4062 14.375C19.4062 13.9781 19.7281 13.6562 20.125 13.6562C20.5219 13.6562 20.8438 13.9781 20.8438 14.375V14.4276C20.8438 15.7382 20.8437 16.7946 20.7321 17.6255C20.6161 18.4881 20.368 19.2143 19.7912 19.7911C19.2143 20.368 18.4881 20.6161 17.6255 20.7321C16.7946 20.8437 15.7382 20.8437 14.4276 20.8437H8.57242C7.26181 20.8437 6.20542 20.8437 5.37457 20.7321C4.51197 20.6161 3.78568 20.368 3.20884 19.7912C2.632 19.2143 2.38389 18.4881 2.26792 17.6255C2.15621 16.7946 2.15623 15.7382 2.15625 14.4276C2.15625 14.4101 2.15625 14.3925 2.15625 14.375C2.15625 13.9781 2.47805 13.6562 2.875 13.6562Z" fill="#FF5C31"/>
<path fill-rule="evenodd" clip-rule="evenodd" d="M11.5003 16.0521C11.7022 16.0521 11.8946 15.9673 12.0308 15.8183L15.8641 11.6256C16.132 11.3327 16.1116 10.878 15.8187 10.6102C15.5257 10.3423 15.0711 10.3626 14.8032 10.6556L12.2191 13.482V2.875C12.2191 2.47805 11.8973 2.15625 11.5003 2.15625C11.1034 2.15625 10.7816 2.47805 10.7816 2.875V13.482L8.19746 10.6556C7.9296 10.3626 7.47497 10.3423 7.18201 10.6102C6.88905 10.878 6.86868 11.3327 7.13654 11.6256L10.9699 15.8183C11.1061 15.9673 11.2985 16.0521 11.5003 16.0521Z" fill="#383838"/>
</svg>
