<svg width="33" height="33" viewBox="0 0 44 44" fill="none" xmlns="http://www.w3.org/2000/svg">
<path d="M23.4404 1.04688C12.8529 1.04688 4.19043 9.70938 4.19043 20.2969C4.19043 24.9719 5.97793 29.3719 8.72793 32.6719L5.56543 42.2969L15.6029 37.8969C17.9404 38.9969 20.6904 39.5469 23.4404 39.5469C34.0279 39.5469 42.6904 30.8844 42.6904 20.2969C42.6904 9.70938 34.0279 1.04688 23.4404 1.04688Z" stroke="black" stroke-miterlimit="10" stroke-linecap="round" stroke-linejoin="round"/>
<path d="M33.9625 27.6375C34.375 26.4 34.375 25.4375 34.2375 25.1625C34.1 24.8875 33.825 24.8875 33.275 24.6125C32.725 24.3375 30.25 23.1 29.8375 22.9625C29.425 22.825 28.875 22.825 28.6 23.375C28.05 24.0625 27.6375 24.75 27.225 25.1625C26.95 25.4375 26.4 25.575 25.9875 25.3C25.4375 25.025 23.7875 24.475 21.8625 22.825C20.35 21.45 19.3875 19.8 18.975 19.25C18.7 18.7 18.975 18.425 19.25 18.15C19.525 17.875 19.8 17.6 20.075 17.325C20.35 17.05 20.4875 16.9125 20.625 16.5C20.7625 16.225 20.625 15.8125 20.4875 15.5375C20.35 15.2625 19.3875 12.7875 18.975 11.825C18.7 11 18.425 11 17.875 11C17.7375 11 17.4625 11 17.325 11C16.6375 11 15.95 11.1375 15.5375 11.6875C14.9875 12.2375 13.75 13.475 13.75 15.95C13.75 18.425 15.5375 20.9 15.8125 21.175C16.0875 21.45 19.3875 26.675 24.475 28.875C28.4625 30.525 29.7 30.3875 30.525 30.25C31.9 29.8375 33.55 28.875 33.9625 27.6375Z" stroke="black"/>
</svg>
