<svg width="55" height="55" viewBox="0 0 52 52" fill="none" xmlns="http://www.w3.org/2000/svg">
<path fill-rule="evenodd" clip-rule="evenodd" d="M46 26C46 37.0456 37.0456 46 26 46C14.9543 46 6 37.0456 6 26C6 14.9543 14.9543 6 26 6C37.0456 6 46 14.9543 46 26ZM26.7166 20.7649C24.7714 21.574 20.8835 23.2486 15.0531 25.7888C14.1064 26.1654 13.6104 26.5338 13.5653 26.8938C13.489 27.5026 14.2512 27.7422 15.2891 28.0686C15.4303 28.113 15.5766 28.159 15.7265 28.2076C16.7477 28.5396 18.1214 28.928 18.8355 28.9434C19.4832 28.9574 20.2062 28.6904 21.0044 28.1422C26.4518 24.465 29.264 22.6064 29.4404 22.5662C29.565 22.538 29.7376 22.5024 29.8546 22.6064C29.9716 22.7104 29.96 22.9072 29.9476 22.96C29.8722 23.282 26.8802 26.0636 25.3318 27.503C24.8492 27.9518 24.5068 28.27 24.4368 28.3428C24.28 28.5056 24.1202 28.6596 23.9666 28.8076C23.018 29.7222 22.3064 30.408 24.006 31.528C24.8226 32.0662 25.4762 32.5112 26.1282 32.9552C26.8402 33.4402 27.5504 33.9238 28.4694 34.5262C28.7034 34.6796 28.927 34.839 29.1448 34.9942C29.9734 35.585 30.7178 36.1158 31.6376 36.031C32.172 35.982 32.724 35.4794 33.0044 33.9806C33.667 30.4386 34.9694 22.764 35.2704 19.6016C35.2968 19.3246 35.2636 18.97 35.2368 18.8143C35.2102 18.6586 35.1546 18.4368 34.9522 18.2727C34.7126 18.0782 34.3426 18.0372 34.1772 18.04C33.425 18.0534 32.2708 18.4547 26.7166 20.7649Z" stroke="black" stroke-linejoin="round"/>
</svg>
