<svg width="37" height="37" viewBox="0 0 37 37" fill="none" xmlns="http://www.w3.org/2000/svg">
<path d="M9.2487 9.25H6.16536C4.46249 9.25 3.08203 10.6305 3.08203 12.3333V24.6667C3.08203 26.3695 4.46249 27.75 6.16536 27.75H9.2487C10.9516 27.75 12.332 26.3695 12.332 24.6667V12.3333C12.332 10.6305 10.9516 9.25 9.2487 9.25Z" stroke="#FF5C31" stroke-width="1.5" stroke-linecap="round" stroke-linejoin="round"/>
<path d="M30.8307 9.25H27.7474C26.0445 9.25 24.6641 10.6305 24.6641 12.3333V24.6667C24.6641 26.3695 26.0445 27.75 27.7474 27.75H30.8307C32.5336 27.75 33.9141 26.3695 33.9141 24.6667V12.3333C33.9141 10.6305 32.5336 9.25 30.8307 9.25Z" stroke="#FF5C31" stroke-width="1.5" stroke-linecap="round" stroke-linejoin="round"/>
<path d="M12.332 15.418H24.6654" stroke="#FF5C31" stroke-width="1.5" stroke-linecap="round" stroke-linejoin="round"/>
<path d="M24.6654 21.582H12.332" stroke="#FF5C31" stroke-width="1.5" stroke-linecap="round" stroke-linejoin="round"/>
</svg>
