<svg width="35" height="35" viewBox="0 0 35 35" fill="none" xmlns="http://www.w3.org/2000/svg">
<path d="M14.582 5.83203H8.7487C7.13787 5.83203 5.83203 7.13787 5.83203 8.7487V20.4154C5.83203 22.0262 7.13787 23.332 8.7487 23.332H26.2487C27.8596 23.332 29.1654 22.0262 29.1654 20.4154V18.957" stroke="#FF5C31" stroke-width="1.5" stroke-linecap="round" stroke-linejoin="round"/>
<path d="M25.4698 7.29167C26.5492 7.29167 27.4918 7.87811 27.9961 8.74977M25.4698 7.29167C24.3903 7.29167 23.4478 7.87809 22.9435 8.74975M25.4698 7.29167V4.375M27.9961 8.74977L30.5216 7.29167M27.9961 8.74977C28.2444 9.17882 28.3864 9.67699 28.3864 10.2083C28.3864 10.7681 28.2412 11.2579 27.9962 11.667M22.9435 8.74975L20.418 7.29167M22.9435 8.74975C22.6952 9.17881 22.5531 9.67698 22.5531 10.2083C22.5531 10.7397 22.6952 11.2379 22.9435 11.6669M25.4698 16.0417V13.0765M25.4698 13.0765C24.4979 13.0961 23.5177 12.6594 22.9435 11.6669M25.4698 13.0765C26.4731 13.0563 27.4673 12.5499 27.9962 11.667M20.418 13.125L22.9435 11.6669M30.5216 13.125L27.9962 11.667" stroke="#FF5C31" stroke-width="1.5" stroke-linecap="round"/>
<path d="M17.5 23.332V29.1654" stroke="#FF5C31" stroke-width="1.5" stroke-linecap="round" stroke-linejoin="round"/>
<path d="M11.668 29.168H23.3346" stroke="#FF5C31" stroke-width="1.5" stroke-linecap="round" stroke-linejoin="round"/>
</svg>
