<svg width="32" height="32" viewBox="0 0 32 32" fill="none" xmlns="http://www.w3.org/2000/svg">
<g clip-path="url(#clip0_393_34166)">
<path d="M17.1915 15.1828H14.8153C13.8281 15.1828 13.0247 14.3794 13.0247 13.3922C13.0247 12.405 13.8281 11.6016 14.8153 11.6016H19.0093C19.4587 11.6016 19.8264 11.2339 19.8264 10.7845C19.8264 10.3352 19.4587 9.96753 19.0093 9.96753H16.8238V8.29944C16.8238 7.85008 16.4562 7.48242 16.0068 7.48242C15.5574 7.48242 15.1898 7.85008 15.1898 8.29944V9.96753H14.8153C12.9293 9.96753 11.3906 11.5063 11.3906 13.3922C11.3906 15.2782 12.9293 16.8169 14.8153 16.8169H17.1915C18.1787 16.8169 18.9821 17.6203 18.9821 18.6075C18.9821 19.5948 18.1787 20.3982 17.1915 20.3982H12.9225C12.4732 20.3982 12.1055 20.7658 12.1055 21.2152C12.1055 21.6645 12.4732 22.0322 12.9225 22.0322H15.183V23.7343C15.183 24.1837 15.5506 24.5514 16 24.5514C16.4493 24.5514 16.817 24.1837 16.817 23.7343V22.0322H17.2119C17.2187 22.0322 17.2255 22.0322 17.2323 22.0322C19.0979 22.005 20.6093 20.4799 20.6093 18.6075C20.6093 16.7148 19.0774 15.1828 17.1915 15.1828Z" fill="#FF5C31"/>
<path d="M27.3157 4.68426C24.2928 1.66128 20.2757 0 16 0C11.7243 0 7.70723 1.66128 4.68426 4.68426C1.66128 7.70723 0 11.7243 0 16C0 20.2757 1.66128 24.2928 4.68426 27.3157C7.70723 30.3387 11.7243 32 16 32C20.2757 32 24.2928 30.3387 27.3157 27.3157C30.3387 24.2928 32 20.2757 32 16C32 11.7243 30.3387 7.70723 27.3157 4.68426ZM16 30.366C8.0817 30.366 1.63404 23.9183 1.63404 16C1.63404 8.0817 8.0817 1.63404 16 1.63404C23.9183 1.63404 30.366 8.0817 30.366 16C30.366 23.9183 23.9183 30.366 16 30.366Z" fill="#FF5C31"/>
</g>
<defs>
<clipPath id="clip0_393_34166">
<rect width="32" height="32" fill="white"/>
</clipPath>
</defs>
</svg>
