<svg width="35" height="32" viewBox="0 0 35 32" fill="none" xmlns="http://www.w3.org/2000/svg">
<path fill-rule="evenodd" clip-rule="evenodd" d="M32.2746 4.14794L24.4261 11.63L29.1719 24.0301C29.4057 24.7404 29.2603 25.6207 28.958 25.9079C28.0997 26.7242 27.4878 26.336 27.1623 25.9939L19.574 16.2559L11.1736 24.2632L12.686 29.5954C12.0888 29.0271 8.60478 24.5953 8.52158 24.5143C8.46576 24.4623 3.8822 21.2169 3.38824 20.7447L8.77119 22.1253L17.3306 14.141L7.15136 6.98611C6.85962 6.73801 6.4752 6.0057 7.2609 5.25639C7.56422 4.96928 8.48051 4.88224 9.22618 5.10533L22.2238 9.57918L30.1787 2.15912C30.7348 1.6309 31.8228 1.68494 32.3104 2.14813C32.797 2.61132 32.8307 3.62072 32.2746 4.14794ZM33.6996 0.803581C32.3873 -0.446931 30.0808 -0.15383 28.7611 1.10268L22.0448 7.46729L9.58742 3.0455C8.39413 2.75238 7.19244 2.37322 5.71268 3.7828C4.95753 4.50109 3.38824 5.99571 5.71268 8.20762L14.2542 14.8503L8.69643 20.1185L3.51041 18.887C2.74157 18.6989 2.22341 18.846 1.82845 19.2601C1.6294 19.4962 0.185443 20.5127 1.19231 21.471L7.22191 25.9269L11.9129 31.6542C12.6417 32.3485 13.3189 31.9153 14.2447 31.08C14.8313 30.5218 14.705 30.2346 14.528 29.4213L13.3569 24.5293L18.8767 19.2681L25.8595 27.3835C28.1829 29.5954 29.7532 28.0998 30.5084 27.3835C31.9892 25.9729 31.5911 24.8304 31.2825 23.695L26.6663 11.8421L33.3552 5.46647C34.6749 4.21096 35.013 2.05309 33.6996 0.803581Z" fill="#FF5C31"/>
</svg>
