<svg width="26" height="26" viewBox="0 0 26 26" fill="none" xmlns="http://www.w3.org/2000/svg">
<g clip-path="url(#clip0_393_36966)">
<path d="M10.6633 13.9203L10.6367 13.9914C10.5905 14.1147 10.5269 14.2199 10.4478 14.3041C10.3674 14.3896 10.2758 14.4602 10.1754 14.5142C10.0741 14.5688 9.96743 14.6083 9.85835 14.6317C9.53944 14.7001 9.23892 14.6693 8.99761 14.5465C8.83876 14.4659 8.70287 14.3563 8.59374 14.2211C8.48365 14.0849 8.39864 13.9253 8.3409 13.7467C8.28276 13.5674 8.25325 13.3771 8.25325 13.181C8.25325 13.0063 8.2788 12.8277 8.32917 12.65C8.37894 12.4743 8.45607 12.3147 8.55835 12.1757C8.65961 12.0382 8.79123 11.925 8.94967 11.8394C9.1824 11.7134 9.49465 11.6776 9.84763 11.743C9.9591 11.7638 10.0686 11.8007 10.173 11.8528C10.2761 11.9044 10.3715 11.9751 10.4568 12.0629C10.541 12.1497 10.6099 12.2618 10.6616 12.396L10.6909 12.4723L12.0311 11.5188L12.0051 11.4697C11.7969 11.076 11.4765 10.7553 11.0527 10.5167C10.6299 10.2788 10.1244 10.1582 9.55011 10.1582C9.07048 10.1582 8.63721 10.2462 8.26214 10.4196C7.88824 10.5926 7.56542 10.8221 7.30273 11.1015C7.03999 11.381 6.83732 11.7013 6.70036 12.0535C6.56351 12.4051 6.49414 12.7679 6.49414 13.1316C6.49414 13.5119 6.56777 13.8913 6.71286 14.2596C6.85789 14.628 7.06584 14.9618 7.33097 15.2519C7.59609 15.5423 7.91602 15.7788 8.28189 15.9547C8.64869 16.1311 9.05875 16.2206 9.50059 16.2206C9.7514 16.2206 10.0128 16.1895 10.2775 16.1283C10.5421 16.067 10.7937 15.9765 11.0256 15.8593C11.2582 15.7415 11.4686 15.5937 11.6508 15.4199C11.8349 15.2442 11.9745 15.0427 12.0655 14.821L12.0862 14.7705L10.6633 13.9203Z" fill="#FF5C31"/>
<path d="M14.8482 12.5V11.7168H13.3199V12.5H12.6191V13.8634H13.3199V14.6466H14.8482V13.8634H15.5489V12.5H14.8482Z" fill="#FF5C31"/>
<path d="M18.6236 12.498V11.7148H17.0953V12.498H16.3945V13.8614H17.0953V14.6446H18.6236V13.8614H19.3243V12.498H18.6236Z" fill="#FF5C31"/>
<path d="M13 0C5.83172 0 0 5.83172 0 13C0 20.1683 5.83172 26 13 26C20.1682 26 26 20.1683 26 13C26 5.83172 20.1682 0 13 0ZM13 24.0976C6.88081 24.0976 1.90242 19.1192 1.90242 13C1.90242 6.88081 6.88081 1.90242 13 1.90242C19.1192 1.90242 24.0976 6.88081 24.0976 13C24.0976 19.1192 19.1192 24.0976 13 24.0976Z" fill="#FF5C31"/>
</g>
<defs>
<clipPath id="clip0_393_36966">
<rect width="26" height="26" fill="white"/>
</clipPath>
</defs>
</svg>
