<svg width="35" height="24" viewBox="0 0 35 24" fill="none" xmlns="http://www.w3.org/2000/svg">
<path d="M24.8333 8.33333L29.5575 5.49885C31.0115 4.62639 31.7386 4.19017 32.3368 4.24594C32.8584 4.29456 33.3343 4.564 33.6443 4.98627C34 5.47055 34 6.31841 34 8.01415V15.9859C34 17.6815 34 18.5294 33.6443 19.0138C33.3343 19.436 32.8584 19.7055 32.3368 19.7541C31.7386 19.8098 31.0115 19.3737 29.5575 18.5012L24.8333 15.6667M6.86667 23H18.9667C21.0202 23 22.047 23 22.8313 22.6003C23.5212 22.2489 24.0822 21.6879 24.4337 20.998C24.8333 20.2137 24.8333 19.1869 24.8333 17.1333V6.86667C24.8333 4.81315 24.8333 3.78637 24.4337 3.00204C24.0822 2.3121 23.5212 1.75117 22.8313 1.39965C22.047 1 21.0202 1 18.9667 1H6.86667C4.81315 1 3.78637 1 3.00204 1.39965C2.3121 1.75117 1.75117 2.3121 1.39965 3.00204C1 3.78637 1 4.81313 1 6.86667V17.1333C1 19.1869 1 20.2137 1.39965 20.998C1.75117 21.6879 2.3121 22.2489 3.00204 22.6003C3.78637 23 4.81313 23 6.86667 23Z" stroke="#FF5C31" stroke-width="1.5" stroke-linecap="round" stroke-linejoin="round"/>
</svg>
