<svg width="46" height="46" viewBox="0 0 46 46" fill="none" xmlns="http://www.w3.org/2000/svg">
<path d="M12.8957 31.0234C12.8957 31.0234 12.7613 32.3834 12.8957 33.0293C12.9891 33.4776 13.0787 34.2327 13.4364 34.2327H15.4448C15.8025 34.2327 15.8921 33.4775 15.9855 33.0293C16.1199 32.3838 15.9855 31.0234 15.9855 31.0234" stroke="#FF5C31" stroke-width="1.5" stroke-linecap="round" stroke-linejoin="round"/>
<path d="M34.2622 21.3945H12.8057C11.0501 21.3945 9.62695 22.7208 9.62695 24.3569V28.06C9.62695 29.6961 11.0501 31.0224 12.8057 31.0224H34.2622C36.0177 31.0224 37.4409 29.6961 37.4409 28.06V24.3569C37.4409 22.7208 36.0177 21.3945 34.2622 21.3945Z" stroke="#FF5C31" stroke-width="1.5" stroke-linecap="round" stroke-linejoin="round"/>
<path d="M31.0832 31.0234C31.0832 31.0234 30.9488 32.3834 31.0832 33.0293C31.1766 33.4776 31.2662 34.2327 31.6239 34.2327H33.6323C33.99 34.2327 34.0796 33.4775 34.173 33.0293C34.3074 32.3838 34.173 31.0234 34.173 31.0234" stroke="#FF5C31" stroke-width="1.5" stroke-linecap="round" stroke-linejoin="round"/>
<path d="M14.4406 27.8148C15.3268 27.8148 16.0452 27.0963 16.0452 26.2101C16.0452 25.3239 15.3268 24.6055 14.4406 24.6055C13.5544 24.6055 12.8359 25.3239 12.8359 26.2101C12.8359 27.0963 13.5544 27.8148 14.4406 27.8148Z" stroke="#FF5C31" stroke-width="1.5" stroke-linecap="round" stroke-linejoin="round"/>
<path d="M12.8359 21.3955L14.6585 14.1746C14.97 12.9406 16.3321 11.7676 17.5905 11.7676H29.4767C30.7351 11.7676 32.0972 12.9406 32.4087 14.1746L34.2313 21.3955" stroke="#FF5C31" stroke-width="1.5" stroke-linecap="round" stroke-linejoin="round"/>
<path d="M32.6281 27.8148C33.5143 27.8148 34.2327 27.0963 34.2327 26.2101C34.2327 25.3239 33.5143 24.6055 32.6281 24.6055C31.7419 24.6055 31.0234 25.3239 31.0234 26.2101C31.0234 27.0963 31.7419 27.8148 32.6281 27.8148Z" stroke="#FF5C31" stroke-width="1.5" stroke-linecap="round" stroke-linejoin="round"/>
</svg>
