<svg width="40" height="40" viewBox="0 0 40 40" fill="none" xmlns="http://www.w3.org/2000/svg">
<g filter="url(#filter0_d_393_35366)">
<path fill-rule="evenodd" clip-rule="evenodd" d="M33.8598 4.14794L26.4048 11.63L30.9126 24.0301C31.1347 24.7404 30.9966 25.6207 30.7095 25.9079C29.8942 26.7242 29.313 26.336 29.0038 25.9939L21.7959 16.2559L13.8166 24.2632L15.2532 29.5954C14.686 29.0271 11.3766 24.5953 11.2976 24.5143C11.2445 24.4623 6.89076 21.2169 6.42157 20.7447L11.5347 22.1253L19.665 14.141L9.99604 6.98611C9.71892 6.73801 9.35378 6.0057 10.1001 5.25639C10.3882 4.96928 11.2586 4.88224 11.9668 5.10533L24.3129 9.57918L31.869 2.15912C32.3972 1.6309 33.4306 1.68494 33.8938 2.14813C34.356 2.61132 34.388 3.62072 33.8598 4.14794ZM35.2134 0.803581C33.9669 -0.446931 31.776 -0.153831 30.5225 1.10268L24.1428 7.46729L12.31 3.0455C11.1765 2.75238 10.0351 2.37322 8.62948 3.7828C7.91218 4.50109 6.42157 5.99571 8.62948 8.20762L16.7428 14.8503L11.4636 20.1185L6.53762 18.887C5.80732 18.6989 5.31513 18.846 4.93998 19.2601C4.7509 19.4962 3.37933 20.5127 4.33573 21.471L10.063 25.9269L14.5189 31.6542C15.2112 32.3485 15.8544 31.9153 16.7338 31.08C17.291 30.5218 17.171 30.2346 17.0029 29.4213L15.8905 24.5293L21.1336 19.2681L27.7663 27.3835C29.9732 29.5954 31.4648 28.0998 32.1821 27.3835C33.5887 25.9729 33.2105 24.8304 32.9174 23.6949L28.5326 11.8421L34.8862 5.46647C36.1398 4.21096 36.4609 2.05309 35.2134 0.803581Z" fill="#FF5C31"/>
</g>
<defs>
<filter id="filter0_d_393_35366" x="0" y="0" width="40.0034" height="40" filterUnits="userSpaceOnUse" color-interpolation-filters="sRGB">
<feFlood flood-opacity="0" result="BackgroundImageFix"/>
<feColorMatrix in="SourceAlpha" type="matrix" values="0 0 0 0 0 0 0 0 0 0 0 0 0 0 0 0 0 0 127 0" result="hardAlpha"/>
<feOffset dy="4"/>
<feGaussianBlur stdDeviation="2"/>
<feComposite in2="hardAlpha" operator="out"/>
<feColorMatrix type="matrix" values="0 0 0 0 0 0 0 0 0 0 0 0 0 0 0 0 0 0 0.25 0"/>
<feBlend mode="normal" in2="BackgroundImageFix" result="effect1_dropShadow_393_35366"/>
<feBlend mode="normal" in="SourceGraphic" in2="effect1_dropShadow_393_35366" result="shape"/>
</filter>
</defs>
</svg>
